<?xml version="1.0" encoding="utf-8"?>
<!-- Generator: Adobe Illustrator 24.0.3, SVG Export Plug-In . SVG Version: 6.00 Build 0)  -->
<svg version="1.1" id="Hat" xmlns="http://www.w3.org/2000/svg" xmlns:xlink="http://www.w3.org/1999/xlink" x="0px" y="0px"
	 viewBox="0 0 786.3 615.2" style="enable-background:new 0 0 786.3 615.2;" xml:space="preserve">
<style type="text/css">
	.st0{fill:#F2CA22;}
</style>
<path d="M320.2,311.2c-0.2,0-0.5,0-0.7-0.1c-1.3-0.3-2.2-1.3-2.5-2.5c-0.4-1.8-9.1-44.8-4.5-74.9c0.8-4.7,5.3-29.7,5.5-30.8
	c1-5,6.2-29.8,8.5-34.2c0.7-1.4,1.9-3.6,32.5-10c17.9-3.7,35.7-6.6,45.3-7.4c10.1-0.8,21.2-1.5,33.5-1.5c21.6,0,40.3,2.3,57.2,7.1
	c1.2,0.3,2.1,1.3,2.3,2.6c0.2,1.2-0.3,2.5-1.3,3.2l-79.8,57.5l-33.2,28.3l0,0c-0.5,0.5-1.1,1-2.1,1.8
	c-24.2,20.1-43.8,40.2-58.1,59.6C322.2,310.7,321.2,311.2,320.2,311.2z"/>
<path class="st0" d="M404.7,154.7c-21,1.7-73.7,12.7-75.2,15.7c-2.2,4.2-8.2,33.2-8.2,33.2s-4.8,25.9-5.5,30.7
	c-4.6,29.8,4.5,73.7,4.5,73.7c25.7-34.6,61-61.7,60.7-61.9l33.3-28.4l79.9-57.6C460.9,150.7,426,153,404.7,154.7z"/>
</svg>
