<?xml version="1.0" encoding="utf-8"?>
<!-- Generator: Adobe Illustrator 24.0.3, SVG Export Plug-In . SVG Version: 6.00 Build 0)  -->
<svg version="1.1" id="Face" xmlns="http://www.w3.org/2000/svg" xmlns:xlink="http://www.w3.org/1999/xlink" x="0px" y="0px"
	 viewBox="0 0 786.3 615.2" style="enable-background:new 0 0 786.3 615.2;" xml:space="preserve">
<style type="text/css">
	.st0{fill:none;}
	.st1{fill:#EAD79B;}
</style>
<g>
	<path class="st0" d="M405.2,215.3c-2.3,0.3-6.7,8.5-8.1,15c0,0,0.4,1.5,0.6,2.8c0.2,1.3,4.2,4.6,5.7,5.5c1.5,0.8,2.7,4.4,2.7,4.4
		s1.3-2.3,0.6-3.6c-0.6-1.3-2.5-1.9-4-2.9c-1.5-1.1-2.1-4.8-2.1-4.8l0.2-0.2c-0.4-0.1-0.8-0.1-1.1-0.1l1.2-3c0,0,1-2,6.2,0.9
		c0.1,0-1.5-3.8-5-4.7c-0.2-0.1,1.8-5.1,3.3-5.1s4.5,0.3,5.3,8c0,0.2,0.8-4.7,0.2-6.9C410.4,218.3,407.5,215.1,405.2,215.3z"/>
	<path d="M390.9,293.3c-0.2,0-0.3,0-0.5,0c-1.2-0.2-2.6-0.7-4.3-1.6c-0.4-0.2-0.7-0.4-1.1-0.5c-0.8-0.4-1.9-0.9-2.3-1.1
		c-1.2,0-2.3-0.6-2.8-1.6c-2,0.6-3.7,1.2-4.4,1.7c-0.5,0.3-1,0.5-1.6,0.5c-0.2,0-0.4,0-0.5-0.1c-0.7-0.1-1.4-0.6-1.8-1.2
		c-1.2-1.9-5.3-6.9-9.4-7.2c-1.4-0.1-2.5-1.2-2.5-2.6c-0.1-1.4-0.3-3.2-0.4-3.8l-0.1-0.2c-0.1-0.3-0.4-1.2,0.1-2.2
		c0,0,0-0.1-0.1-0.1c-1.8-3.2-1.5-4.5-1.3-5c0.3-1.1,0.4-1.5,11-10.7c0.8-0.7,1.4-1.2,1.7-1.5c1.7-1.5,11.3-10.5,11.4-10.5
		c0,0,0.1-0.1,0.1-0.1l5.7-4.8c0.4-0.4,1-0.6,1.6-0.6l2.9-0.2c0.1,0,0.1,0,0.2,0c1.3,0,2.5,1,2.7,2.3c0.1,0.6,0.2,1.2,0.2,1.7
		c0.1,0,0.2,0,0.3,0c0,0-1-4.2-1-4.2l-2.2-8.6c-0.1-0.2-0.2-0.3-0.3-0.5c-0.7-1.7-1.4-6.1-1.7-9.6c-0.9-8.1-0.5-8.7,0.2-9.5
		c0.8-1,5.9-4.8,8.8-5.3c0.6-0.1,1.8-0.3,5.1-0.3c2.5,0,4.9,0.1,5,0.1c0.4,0,0.9,0.1,1.2,0.4c1.3,0.7,4.3,3.8,5.4,16.5
		c0.4,5,0.4,8.8-0.1,11.4c1.8,0.6,4,1.7,5.6,3.7c2.9,3.7,1.2,9.7,0.1,13.2l-0.1,0.3c-0.3,1.1-1.5,3.6-6,3.6c0,0,0,0,0,0
		c-0.7,0-1.4-0.1-2-0.1l-0.9,3.6c-1.5,6.3-11.4,24.6-12.5,26.7c-0.1,0.1-0.1,0.2-0.2,0.3c0,0-0.2,0.3-0.6,0.8
		C394.1,293.3,391.9,293.3,390.9,293.3z"/>
	<path class="st1" d="M419.4,239.8c-2.1-2.7-6.5-3.4-6.5-3.4l-0.2-0.5c0.6-1,1.5-4,0.8-12.7c-1-12.7-4-14.4-4-14.4s-7.4-0.3-9.5,0.1
		c-2.1,0.4-6.7,3.7-7.2,4.4c-0.5,0.6,1.1,16.5,2.2,16.6l2.4,9.3l1.9,7.8c0,0,2.9,6.7,2.1,6.1c-0.8-0.6-5.3-6.3-5.3-6.3
		s-2.1,5-2.3,4.2c-0.2-0.8-1.3-8.2-1.3-8.2l-2.9,0.2l-5.7,4.8c0,0-9.7,9-11.5,10.6c-1.7,1.5-11.7,10.1-11.9,10.9
		c-0.2,0.8,1.1,3,1.1,3s1.2-3.3,9-10.6c7.8-7.3,15.5-10.2,15.2-10c-5.8,3.6-10.2,9.9-13.4,12.6c-2.9,2.5-6.7,9.8-8.6,10.8
		c-1.8,1-2.3-1.1-1.9,0.2c0.4,1.3,0.5,4.5,0.5,4.5c6.4,0.5,11.5,8.4,11.5,8.4c2.7-1.9,12.4-3.9,12.4-3.9c-4.4,2.3-4.5,3.4-3.5,3.3
		c0.6-0.1,2.5,1,4.5,1.9c1.3,0.6,2.7,1.2,3.5,1.3c1.7,0.2,5.2-4,6.6-5.7c0.3-0.4,0.5-0.7,0.5-0.7s10.8-20,12.2-26.1
		c1.5-6.1,1.5-6.1,1.5-6.1s6.5,1.9,7.4-1.1C419.8,248,421.5,242.5,419.4,239.8z M410.7,227.4c-0.7-7.7-3.7-8-5.3-8s-3.6,5-3.3,5.1
		c3.5,0.9,5.1,4.7,5,4.7c-5.1-2.9-6.2-0.9-6.2-0.9l-1.2,3c0.4,0,0.8,0,1.1,0.1l-0.2,0.2c0,0,0.6,3.8,2.1,4.8c1.5,1.1,3.4,1.7,4,2.9
		c0.6,1.3-0.6,3.6-0.6,3.6s-1.3-3.6-2.7-4.4c-1.5-0.8-5.5-4.2-5.7-5.5c-0.2-1.3-0.6-2.8-0.6-2.8c1.5-6.4,5.8-14.7,8.1-15
		c2.3-0.3,5.2,2.9,5.7,5.2C411.5,222.7,410.7,227.6,410.7,227.4z"/>
</g>
</svg>
