<?xml version="1.0" encoding="utf-8"?>
<!-- Generator: Adobe Illustrator 24.0.3, SVG Export Plug-In . SVG Version: 6.00 Build 0)  -->
<svg version="1.1" id="LeftLeg" xmlns="http://www.w3.org/2000/svg" xmlns:xlink="http://www.w3.org/1999/xlink" x="0px" y="0px"
	 viewBox="0 0 786.3 615.2" style="enable-background:new 0 0 786.3 615.2;" xml:space="preserve">
<style type="text/css">
	.st0{fill:#FFFFFF;}
	.st1{fill:#3A89C9;}
</style>
<path d="M397.3,443.8c0-0.4-0.1-0.9-0.3-1.3l-12.2-25.5c0-1.8,1.3-6-0.3-7.4c-2.2-1.9-6.2-10.1-10-6.5c0.9-3-2.1-4.8-4.7-4.2
	c2.9-1.9,5.9-3.1,13.8-6c0.9-0.3,1.6-1,1.9-1.9c0.9-3.4-4.2-10.1-7.5-16.2c-2.6-3.8-10.9-12.6-11.3-13c-2.3-3.1-17.4,4.1-25.6,2.9
	c-5.8,0-9.3-0.6-10.4-0.5c-4.6,0.5-15.6,2-18.7,5.5c-3.1,3.5-6.4,12.3-7.1,14.4c-3,15.7,11,30.3,24.6,34.8c1.5,0.8,4.7,2,7.7,8.7
	c3.7,8.6-16.6,15.5-19.1,24.8c-0.8,0.1-1.5,0.4-2,1c-6.8,7.9-6.5,5.5-6.6,10c-3.8,0.1-20.8,0.7-21.1,1.3c-0.2,0.5-0.3,4.7-0.3,7.1
	c-1-1.4-18,3.3-19.5,3.3c-1.1,0.2-2,1-2.4,2c-4.4,16.6-1.9,7.4,7.8,16.7c4.6,5.4,1,8.5,5.1,10.7c1.7,0.6,17.2,6.3,22.5,7
	c13.1,1.5,42-4.1,45.3-5.1c11.8-4.8,37.2-13.6,36.9-12.6c2.1-0.1,7-1.2,7.7-5c0.9-2.8,0.1-4-1.7-6.7c-2.4-4,0-5.1-2.7-7.3
	c-2.6-1.1-7.5-7.1-10.3-3.6c-2.2-3.4-6.8-9.4-5-15.4c5.9-0.2,12.4-0.4,18.6-0.5c1.9-0.2,4.3,0.5,5.8-1.1
	C397.2,453.5,397.6,453,397.3,443.8z"/>
<path class="st0" d="M313,463.6c0,0-0.6-0.7-0.2-1.4c0.4-0.7,5.7-6.3,5.7-6.3s25,5,27.9,10.6c0.3,0.5-4.7,4.8-4.7,4.8
	s-11.1-4.7-15.3-5.5C322.2,465,313,463.6,313,463.6z"/>
<path class="st0" d="M286.5,474.9l-17.3,3.6c0,0-1,2.7-1.8,7.8c0,0,4,0.1,9,5.5c3.6,3.9,3.9,9.9,3.9,9.9s16.7,6.2,21.8,6.8
	c12,1.5,41.3-4.1,43.9-4.9c3.6-1.2,7-2.7,10.8-4.2c20.9-8,26.8-8.6,26.8-8.6s4.2-0.4,4.7-2.2c0.5-1.8,0.8-1.5-1.2-4.5
	c-1.9-3-1.8-6.4-1.8-6.4l-6-4.1c0,0,2.9,3.3,3,3.9c0.1,1.6-2.2,3.9-3.3,4.6c-1.1,0.7-2.7,1.3-2.7,1.3s-41.5,11.2-62.4,7.7
	c-20.9-3.5-13.5-1.8-13.5-1.8s-10.9-9.8-13.1-11.5C285.9,476.5,286.5,474.9,286.5,474.9z"/>
<path class="st0" d="M358.3,472.5c-2.5-3.1-5.8-14.2-1.9-15.4c3.9-1.2,9.7,3.6,13.4,9.2c3.7,5.6,4.7,11.3,3.4,12.2
	C371.8,479.5,365.6,481.6,358.3,472.5z"/>
<path class="st1" d="M394,443.9l-12.6-26.3l0.6-5.8l-5.3-6.2c0,0-4.1,3.2-5.4,5.2c-1.3,2-4.7,10.5-3.4,11.4c1.9,1.3,3.6-1.8,3.6-1.8
	s-2.2,6.1-5.6,4.3c-3.5-1.7,6.1-22.6,5.4-22.6c-2.9,0-6.4,0.9-9.5,2.9c-2.3,1.5-5.7,5.3-5.7,5.3s2.7-7.4,9.4-12.4
	c4.6-3.4,7.2-4.5,17-8.1c0,0-4.6-9.4-7.2-13.1c-2.5-3.6-11-12.6-11-12.6s-11.2,3.1-17.5,3.7c-6.7,0.7-15.8-0.2-15.8-0.2
	s-14,1.5-16.7,4.5S308,385,308,385s-0.9,11.4,3.9,17.2c7.8,9.4,12.9,11.3,19.7,14.3l-1.9-5.6c0,0,10,8.3,10.7,16.6
	c0.5,6.3,0.4,8.4-9.9,16.1c-9.5,7.1-9.3,10-9.3,10s6.1,0.8,9.6,2.7c1.1,0.6,4.8,0,4.8,0s2.1-3.2,58.1-4
	C394.3,452.2,394,443.9,394,443.9z"/>
</svg>
