<?xml version="1.0" encoding="utf-8"?>
<!-- Generator: Adobe Illustrator 24.0.3, SVG Export Plug-In . SVG Version: 6.00 Build 0)  -->
<svg version="1.1" id="LeftArm" xmlns="http://www.w3.org/2000/svg" xmlns:xlink="http://www.w3.org/1999/xlink" x="0px" y="0px"
	 viewBox="0 0 786.3 615.2" style="enable-background:new 0 0 786.3 615.2;" xml:space="preserve">
<style type="text/css">
	.st0{fill:#EAD79B;}
</style>
<path d="M293.7,226.1c0,0,5.1,18.2,3.9,20.4s-13.6-2.1-18.4-4.4c0,0,0.5,9.2-3,10.3c-3.5,1.1-14-7.6-22.5-10.8s15.4-16.5,17-16.8
	S293.7,226.1,293.7,226.1z"/>
<path d="M395.3,234.8c-0.3-0.4-0.7-0.6-1.2-0.8l-20-6.9c-0.3-0.1-0.6-0.1-0.9-0.1c0,0-0.1,0-0.1,0c-0.4-1.8-1-3.7-2.1-4.6
	C350,205.5,336.3,203,330,203c-1.9,0-3.1,0.2-3.6,0.4l-22.1,2.8c-5.9-0.2-12.8-0.6-14.3-1c-1.2-0.7-4.8-4.9-7.7-8.6l-0.5-3.5
	l2.3-3.9c0.4-0.5,3.1-4,6.9-5.2c7.8-2.5,12.3-6.5,13.3-9.3c0.8-2.4-0.8-6-2.3-8.6c-0.2-0.4-0.5-0.7-0.8-0.9c-0.9-0.6-2.7-1-5.3-1
	c-0.9,0-1.9,0-2.9,0.1c-4.7,0.3-11.3,3.5-16.5,6.2c-0.4,0.2-0.7,0.3-0.9,0.4c-0.8,0.4-3,1.5-5.4,13.1c-1.1,1.5-5.4,6.8-11.8,9.6
	c-4.8,2.1-9.3,2.6-12.6,2.9c-2.4,0.2-4,0.4-5.2,1.1c-3.5,2.1-2.7,5.4-2.4,7l0.1,0.3c0.4,1.7,1.4,2.6,2.2,3.2c0,0,0.7,1.4-0.9,7.5
	c-0.5,1.4-1,3.7-1.4,7.3c-0.1,0.8,0.2,1.5,0.7,2.1l4.6,5.3c-0.1,0.1-0.1,0.2-0.2,0.3c-0.4,0.8-1.1,2.2,2.1,8.5
	c0.3,0.6,0.8,1,1.4,1.3c1,0.4,10.4,4.2,14.8,4.8c0.3,0,0.6,0.1,0.9,0.1c3.8,0,9.1-2.9,17.4-9.3c2-1.6,10.9-6.1,17.9-9.5
	c2.1,2.8,11.7,6.4,19.5,9c4.1,1.3,18,5.7,25.6,5.7c1.9,0,3.4-0.3,4.4-0.9c4.4-2.5,12-2.9,13.9-3c2.5,0.9,14.5,4.9,17,5.7
	c0.3,0.3,0.9,1,1.4,1.6c3,3.4,8.4,9.6,16.2,9.6c1.7,0,3.5-0.3,5.2-0.9c1.3-0.5,2.3-1.5,2.6-2.9C404.6,246.4,398.9,238.9,395.3,234.8
	z"/>
<path class="st0" d="M299.7,222.6c0,0-18,8.6-21.5,11.3c-3.5,2.7-12,9.2-16.3,8.7c-4.2-0.6-14.1-4.6-14.1-4.6s-3.1-6-1.9-6.2
	c1.2-0.2,2.7,0.4,2.7,0.4l-7.7-8.9c0,0,0.8-7.1,1.9-8.1c1.2-1,2.8,1,2.8,1s1.2-3.3-0.8-6.7c-1.9-3.5-3.7-3.3-4-5
	c-0.4-1.7-0.9-3.3,1-4.4s9.2-0.2,17.5-3.9c8.3-3.7,13.3-11,13.3-11s2.1-10.8,4-11.7c1.9-1,11-6,16.4-6.4c5.4-0.4,6.5,0.4,6.5,0.4
	s2.7,4.6,2.1,6.4c-0.6,1.7-4.1,5.3-11.5,7.6c-5.1,1.6-8.3,6.3-8.3,6.3l-2.9,4.8l0.8,5.2c0,0,7.1,9.2,9.2,10
	c2.1,0.8,15.4,1.2,15.4,1.2l22.5-2.9c0,0,14.2-4.2,42.5,18.5c1,0.8,2.3,8.1,0.9,9.7c-1.4,1.6-9.5-6.4-9.5-6.4s3.2,6,6.2,7.7
	c2.9,1.6,4.8,1.1,5.4,0.6c1.5-1.3,1-6.4,1-6.4l20,6.9c0,0,11,12.7,6.7,14.2c-11.5,4.2-18.7-9.6-20.8-10.2c-1.5-0.5-17.7-6-17.7-6
	s-9.9,0-15.6,3.3c-5.8,3.3-43.7-9.4-46-13.1C299.1,223.7,299.7,222.6,299.7,222.6z"/>
</svg>
