<?xml version="1.0" encoding="utf-8"?>
<!-- Generator: Adobe Illustrator 24.0.3, SVG Export Plug-In . SVG Version: 6.00 Build 0)  -->
<svg version="1.1" id="LIGHTNING_BALL" xmlns="http://www.w3.org/2000/svg" xmlns:xlink="http://www.w3.org/1999/xlink" x="0px"
	 y="0px" viewBox="0 0 786.3 615.2" style="enable-background:new 0 0 786.3 615.2;" xml:space="preserve">
<style type="text/css">
	.st0{fill:#44C8F5;}
</style>
<path class="st0" d="M266.8,272.4c0,0-1.5-0.5-2.2-0.5s-1.8,1.1-1.8,1.1s-0.7-1.5-1.3-1.1c-0.5,0.4-1.8,1.3-2.2,0.4
	c-0.4-0.9,1.1-5.3,1.1-5.3s-2.6,3.1-2.9,5.3c-0.4,2.2-1.5,5.9-1.5,5.9s-0.7,3.8-1.3,5.5c-0.5,1.6-0.9,5.3-1.6,6
	c-0.7,0.7-2.2,4.4-2.2,4.4s-0.9,2-0.2,2.9s2.4,2.4,3.1,3.5c0.7,1.1,0,3.1,1.1,3.5c1.1,0.4,4,1.1,4.8,2.2c0.7,1.1,5.5,0.4,5.5,0.4
	c0.7-0.5,0,1.1,0,1.1s3.5,0.5,6.6-1.8c3.1-2.4,3.7-3.8,4.8-4.4c1.1-0.5,4.9-3.1,4.9-3.1l3.3-6c0,0,1.6-3.8,1.1-4.9s-5.5-7-7.5-7.1
	c-2-0.2,2.6-0.5,2.6-0.5l-6.2-3.5l-1.3-1.5l-1.1-1.5c0,0-2,1.1-2.9,0.5c-0.9-0.5,0-1.4,0-1.4s2-0.8,3.3-0.7c4.5,0.2,7-2.9,7-2.9
	c0,2-1.5,3.5-3.3,4.2s3.3,1.6,4.8,0.2c1.5-1.5,0.9-1.6,3.1-1.5s8.1,1.3,9.7,2.6c1.6,1.3,3.5,1.3,4.2-0.7s-0.4-5.1,1.6-6.6
	s4.1-2.9,6.9-0.5c0,0-4.3-0.1-4.8,2.1s-0.3,3.6-0.3,3.6c-0.2-0.1,4.4,2,2.2,4c0,0-1.1-3.1-3.3-1.1c-1.3,1.2-1.3,1.6-1.3,1.6l2.4,1.6
	c0,0-3.8,0.9-5.3-0.4s-2.6-2.4-2.6-2.4s-7-2.4-8.8-0.9s-0.4,5.3-0.4,5.3s-0.2,2.7,3.7,4.2c3.8,1.5,7.9,0,10.6,1.6s0.5,3.8,0.5,3.8
	s-0.9-2.4-3.7-2.4s-4.4,0.2-4.4,0.2l2.6,3.1c0,0,5.3-0.7,9,4.2c3.7,4.9,4.4,14.8,2.2,17.8c-2.2,2.9,2.2-5.5-0.9-6.6
	s-4.4,1.5-4.4,1.5l-2.9,1.1c0,0-4.9,3.3-6.8,3.5c-1.8,0.2-4.9,3.5-4.9,3.5s0-2-0.2-2.9s2.4-1.1,2.4-1.1s7.1-4,7.9-5.3
	c0.7-1.3,4.8-3.3,4.8-3.3c1.8,0,3.7,0.2,3.7,0.2s-0.7-6.2-4-7.9c-3.3-1.6-10.4-0.2-10.4-0.2s-0.5-2.7-1.5-2.9
	c-0.9-0.2,2.2,7.7-5.1,12.8c0,0,1.8-3.8,1.8-4.8c0-0.9-4.8-0.2-7.1,2.6c-2.4,2.7-6.2,5.5-5.9,7c0.4,1.5,1,6.5,5.7,3.3
	c0.3-0.2-1.5,3.7-4,2.7c-2.6-0.9-3.3-4.6-3.3-4.6s-4.8,2-7.3,0.9c-2.6-1.1-5.2,4-5.5,4.4c-1.2,1.7,2.2-5.9,2.2-5.9l-2.2-2.4
	l-3.7,1.8c0,0,0,1.5-0.9,2.4s-1.8-0.9-2.6,0.2c-0.7,1.1,1.3,2.9,0.2,4.2c-1.1,1.3-4.9,1.5-6.2,4.2s-4.6,7.7-4.2,8.8
	c0.4,1.1,2.7,1.5,4,3.5s3.1,5.7,3.1,8.8c0,0.3-3.7-8.4-5.7-8.2c-2,0.2-3.8,0.5-3.8,0.5s-1.5-3.1-0.4-4.6s-6.2-0.3-8.8-2.3
	s-3.3-5.3-5.3-5.9c-2-0.5-5.9,0.2-7.5-1.3s-1.5-5.1-4.6-5.1s-8.2-0.7-8.2-0.7s-0.7-3.5-1.6-4c-0.9-0.5,2.7,3.1,2.7,3.1
	s7.1-0.4,8.2,0.5c1.1,0.9,4.6,4.6,4.6,4.6s4.6,0,5.9,0.9c1.3,0.9,5.3,6.8,7.3,6.4s6.8,0.3,6.8,0.3l4.6-4c0,0,4.6-5.5,6.8-5.9
	s-1.6-4.6,1.3-5.9c2.9-1.3,3.7-0.9,2.6-2.6c-1.1-1.6-3.3-3.3-3.3-4.9s-4.8-1.5-4.8-1.5s-1.4,0.3-3.7,1.6c-2,1.1-3.3,2.5-3.3,2.5
	l-4.4,3.2c0,0,1.6-3.1,4-5.3c2.4-2.2,5.9-4,5.9-4l0.7-2.4l-1.8-0.5c0,0-0.9-1.5-2.6-1.5c-1.6,0-2.9-1.8-2.9-1.8s-2,0.5-2.9-2.6
	s-0.2-4-0.2-4l-1.6-1.6l1.1-2.4c0,0,1.5-3.5,1.3-4.9c-0.2-1.5,0.9-3.8-1.1-5.1c-2-1.3-5.3-3.7-5.3-3.7l-5.3-2.4c0,0,2.8,0.5,2.2-0.8
	c-0.5-1.3-1.1-2-2-3.3c-2-2.8-3.1-5.2-3.1-5.2s7,7.9,7.3,9c0.4,1.1,3.3,1.8,3.3,1.8c1.1,1.1,4.4,3.1,5.1,5.1c0.7,2-0.5,8.8-1.5,10.4
	c-0.9,1.6,0.7,3.1,0.7,3.1v2c0,0,1.3,0.2,2.6,2s2.4,2.7,2.4,2.7l2.7,0.2c0,0,1.3-0.9,2.2,0s3.5,1.8,3.5,1.8s1.5,1.1,2.4-0.7
	c0.9-1.8,3.5-2.6,2-7.7s-0.5-8.6-3.8-9.9s-1.8-1.3-1.6-3.8s1.5-6.4-0.5-9.3c-3.3-4.8-6.6-5.1-6.6-5.1V257c0,0-1.5-2.9,0-3.7
	s4.4,0.7,4.8-0.5c0.4-1.3,0.7-4.8-0.2-5.7s-2,1.1-3.5,0.4c-1.5-0.7-1.8-2.4-1.8-2.4s2.4,2,2.9,1.5s2-1.5,2-1.5s3.3,5.9,2.4,7.9
	s-3.7,1.3-3.7,1.3l-1.6,0.5l1.1,2.6c0,0,2.2,1.6,3.5,2.9s4.9,7.9,4.2,10.3s-2,2-1.1,3.1s4.6,0,5.5,2.2s2.6,2,2.7,0.7
	c0.2-1.3,0.5-5.9,0.5-5.9s6.2-10.6,10.1-11.5c0,0-5.3,9.9-4.2,10.4c1.1,0.5,9.8-5.9,9.8-5.9s-4.1,5.4-4.8,6
	C266.2,270.1,266.8,272.4,266.8,272.4z"/>
<path class="st0" d="M279,269c0,0-0.2-3,1-3.3s3.1,2.6,4.6,1.8c1.4-0.8,2.4-7.9,2.4-7.9s-2.2,5-3.6,4.9s-3.3-2.2-4.3-1
	C278,264.7,278,266.9,279,269z"/>
</svg>
