<?xml version="1.0" encoding="utf-8"?>
<!-- Generator: Adobe Illustrator 24.0.3, SVG Export Plug-In . SVG Version: 6.00 Build 0)  -->
<svg version="1.1" id="RADIAL" xmlns="http://www.w3.org/2000/svg" xmlns:xlink="http://www.w3.org/1999/xlink" x="0px" y="0px"
	 viewBox="0 0 786.3 615.2" style="enable-background:new 0 0 786.3 615.2;" xml:space="preserve">
<style type="text/css">
	.st0{fill:#ED1C24;}
</style>
<g>
	<path class="st0" d="M487.6,384.7l134.8,87.6c8.6-12.4,16.2-25.4,22.8-39.1l-144.1-73.1c4-9.7,6.6-20.1,8-30.8l162.7,8.6
		c0.9-9.1,1.4-18.4,1.4-27.8c0-5.9-0.2-11.6-0.5-17.4l-163.3,8.8c-1.2-11.3-3.9-22.1-8-32.3l147.3-74.7c-6.2-14.1-13.6-27.5-22-40.2
		l-138.7,90.2c-8.9-12.7-20.2-23.6-33.1-32l86.5-142.6c-12.9-8.2-26.4-15.3-40.5-21.4l-71,151.5c-8.1-2.9-16.6-5-25.4-6.1L415,27
		c-8.7-0.8-17.5-1.2-26.4-1.2c-6.5,0-12.9,0.2-19.2,0.7l7.2,167.1c-10.5,1-20.6,3.4-30.2,6.9l-71-151.3
		c-14.1,6.1-27.6,13.3-40.3,21.6L321.4,213c-12.9,8.5-24,19.3-32.8,32L150.1,155c-8.3,12.8-15.6,26.1-21.8,40.2l147,74.6
		c-4,10-6.6,20.8-7.8,31.9l-162.9-8.8c-0.3,5.8-0.5,11.5-0.5,17.4c0,9.4,0.4,18.6,1.3,27.7l162.3-8.6c1.3,10.6,3.9,20.9,7.8,30.5
		l-143.8,72.9c6.5,13.6,14.1,26.7,22.6,39l134.5-87.4c8.7,12.4,19.6,23.1,32.2,31.5l-82.6,136c12.7,7.9,25.9,14.8,39.8,20.6
		l67.6-144.2c9.6,3.6,19.8,6,30.3,7l-6.8,158.7c6.4,0.5,12.8,0.7,19.3,0.7c8.9,0,17.8-0.4,26.5-1.2L404.8,435
		c8.8-1.2,17.2-3.3,25.3-6.2L497.8,573c13.9-5.8,27.2-12.7,39.9-20.5L455,416.2C467.7,407.8,478.8,397.1,487.6,384.7z"/>
</g>
</svg>
