<?xml version="1.0" encoding="utf-8"?>
<!-- Generator: Adobe Illustrator 24.0.3, SVG Export Plug-In . SVG Version: 6.00 Build 0)  -->
<svg version="1.1" id="RightArm" xmlns="http://www.w3.org/2000/svg" xmlns:xlink="http://www.w3.org/1999/xlink" x="0px" y="0px"
	 viewBox="0 0 786.3 615.2" style="enable-background:new 0 0 786.3 615.2;" xml:space="preserve">
<style type="text/css">
	.st0{fill:#EAD79B;}
</style>
<path d="M353.1,315.2c-1.6,0-3.1,0.4-3.9,0.7c-1.4,0.6-4.6,3.9-7.3,6.7c-2.1,0.4-8.6,1.7-15.2,2.3c-4.3,0.4-12,2.1-17.8,3.6
	c-9.8,2.5-12.2,3.6-12.9,4.6c-0.2-0.1-0.3-0.3-0.5-0.4c-1.9-1.5-3.7-2.2-5.6-2.2c-1.9,0-3.1,0.9-3.3,1c-0.1,0.1-0.2,0.1-0.2,0.2
	c-4.1-5-7.2-7.5-9.2-7.5c-0.7,0-1.4,0.3-2,0.7c-2.7,2.5-4.1,5.3-4.9,7.9c-0.3-0.1-0.5-0.2-0.8-0.2c-0.4,0-0.9,0.1-1.2,0.4l-8.7,5.9
	c-0.5,0.3-0.9,0.9-0.9,1.5c-0.5,3.4-0.4,7.7,0.8,10.5c0.7,1.5,1.9,4,5.7,7.2c0.1,0.1,0.2,0,0.2,0l12.2,13.2c0.4,0.4,0.9,0.6,1.4,0.7
	c0,0,0.5,0,1.8,0.2c0.7,2.2,2,4.4,2.9,5.7c0.3,0.6,0.7,1,1,1.4c2,2.5,6,2.8,9.2,3l0.7,0c1,0.1,1.5,0.2,2.4,0.6
	c1.2,0.4,2.9,1,6.2,1.4c0.8,0.1,1.5,0.1,2.2,0.1c4.4,0,6.2-2,7.3-3.2c0.1-0.2,0.3-0.3,0.4-0.4c0.6-0.5,0.8-1.3,0.6-2.1
	c-0.1-0.4-0.4-0.8-0.7-1.1c0,0,0,0,0.1,0c1.8-1.5,5-3.7,6.5-4.1c9-1.9,10.3-5.4,10.5-6.4c0.1-0.7-0.1-1.5-0.7-2
	c-0.3-0.3-3.3-3-6.7-3c0.8-0.5,1.5-1,2.2-1.4l8.6-4.6c0.5-0.2,2.4-1.3,2.8-3.5c0.3-1.7-0.6-3.4-2.4-5c-1.7-1.5-3.5-2.2-5.1-2.5
	c11-4.8,23.1-7.9,23.2-7.9c0.9-0.2,1.6-1,1.6-1.9c0.2-1.8,2.8-5.5,4.6-7.7c2.4-2,3.1-2.6,3-3.9C360.9,318.3,357.9,315.2,353.1,315.2
	z"/>
<path class="st0" d="M343.1,324.6c0,0,5.7-6.1,7-6.7c1.4-0.6,8.4-2.2,9,6c0,0.2-2.4,2.1-2.4,2.1s-5,5.7-5.3,9
	c0,0-16.6,4.2-28.9,10.6c-0.7,0.4-9.1-0.8-12.4,0.3c-2.4,0.8-2.8,2.4-2.8,2.4s-6,0.6-8,1.4c-2,0.8-9.5,5.4-11.7,4.8
	c-6-1.6-5.6-3.5-5.6-3.5s1,4.4,5.7,5.3c4.3,0.8,8.5-3.9,12.8-4.5c4.3-0.6,7.2-0.6,7.2-0.6s1.7-3.1,3.8-3.1c2.1,0,9.8-0.5,11.6,1.5
	c1.1,1.2-1.5,5.4-2.6,6s-4,0.5-13.5,0.4c-1.5,0-7.2,6.6-7.2,6.6s-6.7,8.4-12.9,7.8s-8-0.8-8-0.8l-12.9-13.9c0,0-3.8-3.4-4.9-5.8
	c-1.1-2.4-0.7-9.3-0.7-9.3l8.7-5.9l-0.2,6.4c0,0,4.5,6.1,12.3,6c7.8-0.2,8.5-5.1,8.5-10.9l-2.1-3.2c0,0,2.3-1.8,6.1,1.2
	c3.8,3.1,8.4,11.3,8.4,11.3l0.2-3.5l11.3-3.7l-12.1,1.4c0,0-2.9-4.6-4.1-5.4c-1.2-0.8,21-6.7,29.1-7.5
	C335.2,326.3,343.1,324.6,343.1,324.6z"/>
<path class="st0" d="M271.9,340.6c0,0-1.2-8.3,5-14c1.9-1.8,11,10.4,11,10.4s1.5,6.2-3.7,8.1C279,347,271.9,340.6,271.9,340.6z"/>
<path class="st0" d="M303.5,362.6c0,0,2.5-3.7,4.4-4c1.9-0.4,9.8,0.5,13-0.9c3.2-1.3,5.2-3.6,4.9-7.1c-0.3-3.6-1.3-3.3-1.3-3.3
	s4.2-1.3,8,1.9c3.8,3.3,0.1,4.9,0.1,4.9s-4.3,2.3-8.7,4.6c-4.3,2.3-9.4,7.1-10.6,7.4c-1.2,0.3-4.4,0.1-4.4,0.1L303.5,362.6z"/>
<path class="st0" d="M292.1,372.5c0,0,2-0.2,2.6-0.5c0.6-0.3,7.4-6.1,7.4-6.1l4.7,3.1c0,0,2.1,0.9,3.6,0.9s3.2-0.1,10-5
	c3.2-2.3,7.5,1.7,7.5,1.7s-0.5,2.9-8.8,4.6c-2.7,0.6-7.4,4.5-7.4,4.5s-5.7-1.1-11.1-0.7c-5.4,0.4-4.2,1.2-6.4,1
	C292,375.9,292,374.1,292.1,372.5z"/>
<path class="st0" d="M301.7,377.6c-3.7,0.5-5.2,1.1-5.9,1.6c-0.1,0-0.1,0-0.2,0c-6,0-5.4-1.9-5.8-2.4l-0.4-3.8
	c-1.5,0.1-5.6-0.4-5.6-0.4l1.5,3.2c0,0-0.3,0.2,1.2,2.1c1.5,1.9,5.5,2,8.4,2.2c2.8,0.2,3.1,1.3,8.7,2c5.6,0.7,6.9-1.8,8-2.9
	C311.7,379.1,307.4,376.8,301.7,377.6z"/>
</svg>
