<?xml version="1.0" encoding="utf-8"?>
<!-- Generator: Adobe Illustrator 24.0.3, SVG Export Plug-In . SVG Version: 6.00 Build 0)  -->
<svg version="1.1" id="RightLeg" xmlns="http://www.w3.org/2000/svg" xmlns:xlink="http://www.w3.org/1999/xlink" x="0px" y="0px"
	 viewBox="0 0 786.3 615.2" style="enable-background:new 0 0 786.3 615.2;" xml:space="preserve">
<style type="text/css">
	.st0{fill:#3A89C9;}
	.st1{fill:#FFFFFF;}
</style>
<path d="M570.4,451.2l-4.1-12.6l-3-20.4c-0.2-1.4-1.3-2.5-2.6-2.7l-5.3-1c-0.2,0-0.4-0.1-0.6-0.1l-17.3-3.2c0,0,0,0,0,0
	c-0.4-0.1-0.8-0.2-1.2-0.2c-0.9,0-1.8,0.4-2.4,1.1c-1.2,1.3-3.2,3.5-3.9,4c-0.5,0.4-2.1,1.5-3.4,2.2l-2.3,1.6
	c-0.6-2.3-1.3-4.5-1.8-6.4c-0.2-0.8-0.8-1.5-1.5-2c-0.9-0.5-3.9-2.2-6.6-2.2c-0.7,0-1.3,0.1-1.9,0.3c-0.6,0.2-2,0.8-4.3,1.7
	c-3.9,1.6-9.9,4.1-13,5c-4.7,1.5-18.7,5.7-18.8,5.7c-0.3,0.1-0.6,0.2-0.9,0.4c-0.3-0.3-0.6-0.7-0.9-1.1c-1.4-1.5-2.8-3.1-4.1-4.7
	c-6.2-7-14-15.8-14.9-18.8l-1.5-17.3l-21.4,0.1l-4.9,17.8c-0.4,0.9-8.5,20.7-10.4,26.8c-0.2,0.7-0.2,1.4,0,2
	c3.7,10.9,10.4,29.6,13.8,32.5c1.1,1,2.5,1.1,3.4,1.1c4.9,0,17.3-3.9,19.7-4.8c0.7-0.3,2.2-0.9,4.9-2.2c0.2-0.1,0.5-0.2,0.8-0.4
	c2-0.9,7.6-3,13.2-2.3c3.4,1.4,10.1,3.5,23.2,7.3c0.4,0.1,10.7,2.9,16.4,2.9c0.1,0,0.1,0,0.1,0c-0.1,0.5,0,0.9,0.1,1.4
	c0,0.2,0.1,0.3,0.2,0.5c-10.9,2.3-14.6,11.2-15.6,14.6c-0.3-0.1-0.8-0.2-1.3-0.2c-1.7,0-3.2,0.9-3.9,2.3c0,0.1-4.2,9-3.9,11.6
	c0.3,2.9,3.2,3.1,4.6,3.2c1.1,0.1,2.5,0.1,4.5,0.2c3.4,0.1,8.2,0.1,14.4,0.1c18.3,0,42.6-0.4,42.9-0.4c1.4,0,2.6-0.9,3.1-2.2
	c0.8-2.4,2.2-6.6,2.3-8.1c0.1-0.9,0-2-0.2-3.4c-0.1-1.2-0.4-3-0.2-3.8c0.4-2.1,2.1-9,3.1-11c0.8-1.6,4.8-8.2,7.3-12.2
	C570.6,453.2,570.7,452.2,570.4,451.2z"/>
<path class="st0" d="M514.7,457.9c-4,1.1-17.5-2.6-17.5-2.6s-25.8-7.3-24.6-8.2c8.3-6,9.3-3.8,9.6-3.6c2.1,1.4,0.5,3.2,0.5,3.2
	c1.5-1.3,2.7-3.9,1-5.7c-1.7-1.8-27.6,10.8-30.7,12c-3,1.2-18.1,5.7-19.8,4.3c-3.2-2.8-12.9-31.1-12.9-31.1s6.1-19.4,8.8-22.1
	c2.7-2.7,16.8-4.3,16.8-4.3c-10-2.6-15.7,0.8-15.4,0.2c2.5-5.1,20.6-4.5,20.6-4.5s0.3,0.4,1.2,3.3c1.3,4.5,11.3,15.2,19.7,24.8
	s14.5,12,14.5,12c-3.1-2.3-9.2-10.4-9.2-10.4s14.1-4.2,18.9-5.7c4.8-1.5,15.6-6.2,17.4-6.8c1.8-0.6,5.7,1.6,5.7,1.6
	s3.9,14.1,4.9,16.5c1,2.4,6.4,13.2,7.2,14.6c0.9,1.4-0.2,2.4-0.2,2.4L514.7,457.9z"/>
<path class="st1" d="M539.7,459.1c1.8-0.6,2.8-3.6,0.8-5c-2.1-1.4-13.3-0.8-13.3-0.8s-10.1,7.3-10.8,8.1c-0.6,0.8,0.4,1.2,0.4,1.2
	L539.7,459.1z"/>
<path class="st1" d="M496.9,481.2c-0.9,1.5,0.6,2.7,0.6,2.7l47.5,0.1l-3.1,3.5c6.9-2.2,8.5-5.6,8.9-7.1c0.4-1.3,1.2-7.7,2.7-14.1
	s6.5-10.7,5.1-13.2c-2-3.7-4.2-16-4.9-19.6c-0.6-3.6,0.2-14.8,1-15.7l5.3,1l3.1,20.7l4.2,12.8c0,0-6.3,10.2-7.4,12.6
	c-1.2,2.5-3,9.8-3.3,11.8s0.5,6,0.4,7.4c-0.1,1.4-2.1,7.4-2.1,7.4s-62.9,1-63.1-0.2c-0.1-1.2,3.2-9,3.6-9.8
	C495.7,480.8,496.9,481.2,496.9,481.2z"/>
<path class="st1" d="M528.3,421.1l0,10.1c0,0,2.7,5.7,6,6.6c3.9,1.2,9.9-3.8,9.5-10.8c-0.6-10.1-7.6-12.8-7.6-12.8s-3.1,3.3-4.1,4.2
	S528.3,421.1,528.3,421.1z"/>
</svg>
