<?xml version="1.0" encoding="utf-8"?>
<!-- Generator: Adobe Illustrator 24.0.3, SVG Export Plug-In . SVG Version: 6.00 Build 0)  -->
<svg version="1.1" id="RightSleeve" xmlns="http://www.w3.org/2000/svg" xmlns:xlink="http://www.w3.org/1999/xlink" x="0px"
	 y="0px" viewBox="0 0 786.3 615.2" style="enable-background:new 0 0 786.3 615.2;" xml:space="preserve">
<style type="text/css">
	.st0{fill:#FFFFFF;}
</style>
<g>
	<path d="M389.2,281.4c-2.9-3.6-13.9-6.9-13.9-6.9c-5.1,10.6-13.4,20.5-13.4,20.5c-0.2,0.2-4.9,5.3-6,6.5c-0.8,0.9-6.5,5.4-8.2,6.6
		c-1.2,0.9-1.5,2-1.3,6.8c0,0.4,0.1,0.8,0.3,1.2c0.9,2.6,4,8.8,13.4,13.7c0.4,0.2,0.8,0.3,1.3,0.3c0.3,0,0.6-0.1,0.9-0.2
		c0.8-0.3,5-1.8,6.5-2.6c0.5-0.3,3.8-2.2,5.7-4.9c0,0,12.3-20,14.8-40.9C389.3,281.5,389.2,281.5,389.2,281.4z"/>
</g>
<path class="st0" d="M349.1,314.8c0,0-0.2-4.2,0.2-4.5c0.4-0.3,7.5-5.7,8.6-7c1.1-1.3,5.9-6.5,5.9-6.5s7.3,11.2,9.2,21.7
	c0.4,2.3-4.2,5.6-5.6,6.4c-1.3,0.8-6.1,2.4-6.1,2.4l-0.6-2c0,0,1.4-0.4,1.7-1.2c0.3-0.8-4.1-12.9-9.1-13
	C351,311.2,349.1,314.8,349.1,314.8z"/>
</svg>
