<?xml version="1.0" encoding="utf-8"?>
<!-- Generator: Adobe Illustrator 24.0.3, SVG Export Plug-In . SVG Version: 6.00 Build 0)  -->
<svg version="1.1" id="TAIL" xmlns="http://www.w3.org/2000/svg" xmlns:xlink="http://www.w3.org/1999/xlink" x="0px" y="0px"
	 viewBox="0 0 786.3 615.2" style="enable-background:new 0 0 786.3 615.2;" xml:space="preserve">
<style type="text/css">
	.st0{fill:#FFFFFF;}
</style>
<path d="M442.5,205.3l0.8,6.4l-11.6,1.5c0,0-9.8,5.4-8,8c6.4,9.1,18.5,9.2,21.3,7.4c2.8-1.8,1.8-14.7,1.8-14.7l26.3-2.5l0.4,1.8
	c0,0-11-0.3-13.1,2.6c-2.1,2.8,15.1,13.3,16.9,10.8c1.8-2.6-0.8-10.8-0.8-10.8s13,2.5,18.7,1.5c4-0.7,5.2-7.3,5.2-7.3l6.9,0.4
	c0,0-1.3,1.3,0.5,3.1c1.8,1.8,6.8-0.4,8.4-1.7c1.5-1.3-5.2-2.9-4.4-3.2c0.8-0.3,9.8-5.6,10.5-5.2c1.8,1-0.1,8.8-0.1,8.8
	s4.1-1.5,7.2-3.1c3.1-1.5,9-1,9-1s-5.7-2.8-7.7-4.4c-2.3-1.8-2.3-3.6-2.3-3.6c12.7-6.9,18-14,19.1-15.5c-1.9,1.8-18.4,12.7-13.9,8
	c4.6-4.9,3.8-17.5,3.8-17.5h-2.3l-2.1-7.2c0,0-1,13.3-1.5,16.9c-0.5,3.6-5.1,11.3-5.6,10c-0.5-1.3-2.1-0.8-2.1-0.8s0.5-9.2-0.3-9
	c-10.4,3.5-15.7,9-13.6,8c2.1-1,7.7,0.5,8,3.1l2.6,5.4c-9,4.1-11.8,6.6-11.8,6.6c-1.1-0.1-9.4-0.8-9.4-0.8l-2.4,6.3
	c-2.1-4.9-9.5-8.5-11.5-5.9c-2.1,2.6,3.3,7.2,3.3,7.2l-12.4-1.5c0,0-1.1-4.3-1.7-4.6c-1.4-0.6-28.2,2.6-28.2,2.6s-0.8-6.7-1.5-8.2
	c-0.7-1.4-12.9-1.9-13.2-1.9c0,0,0,0,0,0l0,0l-4.5,3.7l1.9-0.1L442.5,205.3z M509.7,210.7c1.5,0,2.5,0.1,3.7,0.6
	c-1.5,0.8-3.1,1.5-4.6,0.8C508.8,212,508.9,210.7,509.7,210.7z M488,209.7c2.3-1.5,6.2,1.5,6.2,4.6c0.8,0.8-1.5,0.8-3.1,0.8
	C490.3,212.8,486.4,210.5,488,209.7z M475.2,224.5c-4.6-1.5-13-6.8-12-7.8c3.1-2.3,7.1-1.6,11-0.9
	C474.9,218.2,475.5,221.2,475.2,224.5z M442.5,227c-3.8,2.3-12.2-2.5-16.1-6c1.7-2.2,4-3.9,6.2-4.8c1.1-0.8,7.7-1.5,11.5-1.6
	C444.1,218.5,445.6,225.5,442.5,227z"/>
<path class="st0" d="M522.4,194.6c0,0-1.8-0.6-2.6,0.1c-0.8,0.8-2.6-2.9-6.3-2.6c-3.7,0.4,7-5.1,8-4.6
	C522.7,188.1,522.4,194.6,522.4,194.6z"/>
<path class="st0" d="M526.5,201.9l-1.1,0.4c0,0,0,4.2-1,7.2c0,0,4.9-3.4,10.9-2.7C535.2,206.8,526.8,203.8,526.5,201.9z"/>
<path class="st0" d="M524.3,199.4c0,0-1.7-3-3.5-2.6c-1.7,0.4,0.7-2.1,3.1-0.9C526.5,197.2,524.3,199.4,524.3,199.4z"/>
<path class="st0" d="M527,196.8c0,0,2.2,0.6,4.8-4.5c2.3-4.5,1.3-9,1.3-9c-0.4,5.7-2.3,6.3-3.1,9C529.2,194.8,527,196.8,527,196.8z"
	/>
</svg>
