<?xml version="1.0" encoding="utf-8"?>
<!-- Generator: Adobe Illustrator 24.0.3, SVG Export Plug-In . SVG Version: 6.00 Build 0)  -->
<svg version="1.1" id="WhiteShirt" xmlns="http://www.w3.org/2000/svg" xmlns:xlink="http://www.w3.org/1999/xlink" x="0px" y="0px"
	 viewBox="0 0 786.3 615.2" style="enable-background:new 0 0 786.3 615.2;" xml:space="preserve">
<style type="text/css">
	.st0{fill:#FFFFFF;}
</style>
<path d="M487.1,373.2c0-2.7-2.4-6.2-4-7.8c-1.3-1.4-2.7-2.2-4.1-2.4c0.4-0.9,0.8-1.5,1.1-1.9c0.5-0.7,1.4-1.9,1.2-3.5
	c-3.3-24.4-13.8-74.4-14.9-77.3c-0.4-1.1-1.5-7-2.3-11.9c-0.1-0.3-0.2-0.7-0.3-1c-6.2-12-9.4-15.3-11.3-16.3c0.2-1.9,0-3.7-0.9-5.1
	c-0.9-1.4-2.7-2.9-12.4-4.1c-4.8-0.6-10.4-0.9-13.3-0.9c-0.6,0-1.4,0-2.2,0.2c-2.1-0.6-4.4-1.6-6.7-2.7c-2.1-1.9-4.6-3.7-7.7-5.5
	c-7.3-4.2-15-5.1-20.2-5.1c-2.5,0-4.1,0.2-4.2,0.2c-0.5,0.1-1,0.3-1.4,0.5c0,0-0.1,0-0.1,0c-0.1,0-0.1,0-0.1,0.1
	c-0.1,0-0.2,0.1-0.3,0.1c-0.1,0-0.1,0.1-0.2,0.1c-0.1,0-0.2,0.1-0.2,0.2c-0.1,0-0.1,0.1-0.1,0.1c-0.1,0.1-0.1,0.1-0.2,0.2
	c0,0-0.1,0.1-0.1,0.2c-0.1,0.1-0.1,0.1-0.2,0.2c0,0.1-0.1,0.1-0.1,0.2c0,0.1-0.1,0.2-0.1,0.2c0,0.1,0,0.1-0.1,0.2
	c0,0.1-0.1,0.2-0.1,0.3c0,0.1,0,0.1,0,0.2c0,0.1,0,0.1,0,0.2c0,0,0,0,0,0.1c0,0,0,0.1,0,0.1c0,0.1,0,0.2,0,0.3c0,0,0,0.1,0,0.1
	c0,0.2,0.1,0.4,0.1,0.5c0,0,0,0,0,0.1c0.1,0.2,0.1,0.3,0.2,0.4c0,0,0,0.1,0.1,0.1c0.1,0.1,0.2,0.3,0.3,0.4c0,0,0,0,0,0
	c1.9,5.2,6.7,18.5,7.6,21.9c0,0.6,0.2,1.2,0.7,2.4c0.6,1.9,1.9,5.4,3.1,11c1.6,7.5,2.2,10.9,2.7,16l0.1,0.5
	c-0.5,0.6-1.3,1.6-2.8,3.1c-1.1,1.1-1.9,1.7-2.4,2.1c-0.1,0-0.1,0-0.2,0.1c-0.7,0-2.8-0.8-4.3-1.7c-0.1-0.1-0.2-0.1-0.3-0.1
	l-1.1-0.5c-0.4-0.2-0.9-0.3-1.4-0.3c-0.4,0-0.7,0.1-1.1,0.2c-0.3-0.1-0.6-0.2-0.8-0.3c-0.1,0-0.3,0.1-0.4,0.2
	c-0.9,0.5-1.5,1.5-1.4,2.6c0,0,0.2,4.1-2.5,11.9c-2.4,6.8-5.3,11-5.3,11c-0.4,0.5-0.5,1.1-0.5,1.8c0.2,3.6,3.6,13.9,4.7,17.3
	c0,0,0,0,0,0.1c0,0.1,0.1,0.2,0.1,0.3c0,0,0,0.1,0,0.1c0,0.1,0,0.1,0.1,0.2c0,0,0,0.1,0,0.1c0,0.1,0,0.1,0.1,0.2
	c0.2,0.6,0.6,1.1,1.2,1.5c-1,0.4-1.7,1.5-1.7,2.6c0,1,0.6,1.9,1.5,2.4c0,0,0,0,0,0l-0.4,0.4c-1,0.9-1.3,2.3-0.6,3.5l0.8,1.4
	c-4.4-3.3-7.6-5.3-7.9-5.5c-0.5-0.3-1.1-0.5-1.7-0.5c-0.6,0-1.1,0.1-1.7,0.4l-0.2,0.1c-0.2,0.1-0.4,0.1-0.6,0.2l-11.6,6.8
	c-0.9,0.5-1.4,1.5-1.3,2.5l0.1,2.7c0,0.8,0.4,1.5,1,2c0.1,0.1,5.2,4.4,11.7,11.2c9.2,10.7,20.3,26.3,22.2,41.4
	c0.1,0.9,0.6,1.6,1.3,2.1c0,0,0.1,0,0.1,0.1c0.2,0.2,0.4,0.4,0.6,0.5c0.5,0.3,1.1,0.5,1.7,0.5c0.4,0,0.9-0.1,1.3-0.3
	c0.9-0.4,8.1-3.6,12.5-8.4l6.2,1.6c0.4,0.1,0.8,0.2,1.1,0.2c0.7,0,1.3-0.2,1.8-0.8c0.8-0.5,6.6-3.7,31.5-10.4
	c17.5-4.7,28.8-8.2,34.8-10.8C484.2,378.6,487.5,376.9,487.1,373.2z"/>
<path class="st0" d="M483.8,373.3c0.1-1.8-3.9-8-6.1-7c-2,1-3.5,7.2-3.5,6.5c0-12.5,3.9-13.6,3.8-14.8
	c-3.3-24.9-13.9-74.5-14.7-76.5c-0.8-2.1-2.4-12.6-2.4-12.6s-9.4-18.1-10.8-14.4c-1.4,3.7-4.9,6-4.9,6s5.8-9.5,3.6-12.7
	s-29.3-4.1-24.1-3.2s11.5,6.2,9.2,5.1s-5-0.8-5-0.8s0.8,4.6,0,3.1c-0.8-1.5-5.3-4.9-4.5-3.6c0.8,1.3,0.3,9,0.3,9
	c-3.2-9-6.4-15.5-17.1-21.7c-10.7-6.2-22.3-4.5-22.3-4.5s7.1,1.4,10.8,3.7c1.6,1.1,9.2,12.6,10.3,16.6c1.1,4-1.2,19-2.1,23.6
	c-0.8,4-2.1,6.4-2.1,6.4c-0.5-4.3-1.1-8.4-2.8-15.2c-1.9-7.5-3.2-10.2-3.2-10.2l-2.4-1.3c0.1,0.9,1.9,4.6,3.7,13.1
	c2.3,10.9,2.5,13.3,3.4,24.1c0.4,5.4,31.4-21.2,31.4-21.2c-17.7,20.5-29.8,26.5-32.6,25.7c-1.3-0.4-1.7-6-1.7-8l0,0c0,0-0.9,1-2,2
	c-1,1-2.3,2.4-4.5,2.7c-2.1,0.4-6.5-2.1-6.5-2.1l-1.1-0.5c0,1.5-0.4,5.6-2.7,12.3c-2.6,7.3-5.6,11.7-5.6,11.7
	c0.3,3.9,4.9,17.5,4.9,17.5c2.4,0,9,0.3,9,0.3c-1,1.2-9.3,4.5-9.3,4.5l4.2,1.5l-4,3.4l11.9,19.6c-10.5-11-24.1-19.6-24.1-19.6
	l-11.6,6.8l0.1,2.7c0,0,11.8,9.9,22.5,23.6c4.5,5.8,11.4,21.6,12.3,30.8c0,0,9-3.8,12.5-9l8.3,2.1c0,0,3.6-3.2,32.7-11
	C487,376.5,483.7,374.6,483.8,373.3z"/>
</svg>
